<svg width="20" height="20" viewBox="0 0 20 20" fill="none" xmlns="http://www.w3.org/2000/svg">
<path d="M15.2626 4.73682H4.73633V15.2631H15.2626V4.73682Z" fill="white"/>
<path d="M15.2643 20.0001L20.0012 15.2632L17.6327 14.8591L15.2643 15.2632L14.832 17.4296L15.2643 20.0001Z" fill="#EA4335"/>
<path d="M0 15.2631V18.421C0 19.2934 0.706562 20 1.57891 20H4.73687L5.2232 17.6316L4.73687 15.2631L2.15617 14.8591L0 15.2631Z" fill="#188038"/>
<path d="M20.0012 4.73687V1.57891C20.0012 0.706562 19.2946 0 18.4223 0H15.2643C14.9762 1.17469 14.8321 2.03917 14.832 2.59344C14.832 3.14765 14.9761 3.86213 15.2643 4.73687C16.312 5.03687 17.1014 5.18687 17.6327 5.18687C18.164 5.18687 18.9535 5.03692 20.0012 4.73687Z" fill="#1967D2"/>
<path d="M20.0005 4.73682H15.2637V15.2631H20.0005V4.73682Z" fill="#FBBC04"/>
<path d="M15.2626 15.2632H4.73633V20.0001H15.2626V15.2632Z" fill="#34A853"/>
<path d="M15.2631 0H1.57898C0.706562 0 0 0.706562 0 1.57891V15.2631H4.73687V4.73687H15.2631V0Z" fill="#4285F4"/>
<path d="M6.89656 12.9029C6.50312 12.6371 6.2307 12.249 6.08203 11.7357L6.99523 11.3595C7.07805 11.6753 7.22279 11.92 7.42945 12.0937C7.63469 12.2674 7.88469 12.3529 8.1768 12.3529C8.47544 12.3529 8.732 12.2621 8.94648 12.0805C9.16101 11.8989 9.2689 11.6674 9.2689 11.3871C9.2689 11.1003 9.15575 10.866 8.92945 10.6845C8.70312 10.5029 8.4189 10.4121 8.07945 10.4121H7.5518V9.50822H8.02547C8.31755 9.50822 8.56359 9.42924 8.76359 9.27127C8.96359 9.11346 9.06359 8.8976 9.06359 8.6226C9.06359 8.37791 8.97414 8.18314 8.79523 8.03713C8.61633 7.89103 8.38992 7.81736 8.11492 7.81736C7.84648 7.81736 7.63336 7.88846 7.47547 8.03182C7.31763 8.17559 7.19898 8.35718 7.1307 8.55947L6.2268 8.18314C6.34648 7.84369 6.56625 7.54369 6.88859 7.28447C7.21094 7.02525 7.62281 6.89502 8.12281 6.89502C8.49258 6.89502 8.82547 6.96611 9.12023 7.10947C9.41492 7.25291 9.64648 7.45158 9.81359 7.70424C9.98078 7.95814 10.0636 8.24236 10.0636 8.55814C10.0636 8.88049 9.98601 9.15291 9.83078 9.37658C9.67554 9.60025 9.48468 9.77127 9.25836 9.89103V9.94494C9.55059 10.0654 9.80444 10.2633 9.99258 10.5174C10.1834 10.7739 10.2794 11.0805 10.2794 11.4385C10.2794 11.7963 10.1886 12.116 10.007 12.3963C9.82547 12.6766 9.57422 12.8976 9.2557 13.0581C8.93601 13.2187 8.5768 13.3003 8.17812 13.3003C7.71625 13.3016 7.29 13.1687 6.89656 12.9029ZM12.5056 8.37127L11.503 9.09627L11.0017 8.3358L12.8004 7.03838H13.4898V13.1581H12.5056V8.37127Z" fill="#4285F4"/>
</svg>
