<svg width="31" height="31" viewBox="0 0 31 31" fill="none" xmlns="http://www.w3.org/2000/svg">
<g filter="url(#filter0_d_3680_8441)">
<circle cx="15.5" cy="13.5" r="11.5" fill="#8F8261"/>
<path d="M25.7359 13.6981C26.0686 12.7106 26.4228 12.174 25.7144 11.2509C25.3173 10.7357 24.5767 10.4781 23.8898 10.4567C24.8665 9.56583 24.9846 7.95588 23.7288 7.1509C23.1278 6.76451 23.0312 6.46399 22.7199 5.87367C22.5589 5.56241 22.2691 5.42288 21.9686 5.28335C21.1529 4.90769 20.3908 5.17602 19.6825 5.55167C19.7576 5.07942 19.7361 4.6501 19.4249 4.21004C18.9526 3.54459 17.933 3.32993 17.2031 3.49093C16.0225 3.75926 16.1835 3.42653 15.3356 3.36213C15.0136 3.34067 14.6701 3.34067 14.3911 3.54459C13.8115 3.96318 13.6612 4.45691 13.5754 5.03649C12.5128 3.69486 10.2052 3.86659 9.77585 5.69121C8.74548 5.50875 8.05858 5.87367 7.68292 6.95771C7.48973 7.52656 7.63998 8.36373 8.0693 8.87892C6.7384 8.80379 5.6651 10.3064 6.29835 11.5944C5.50411 12.1096 5.14993 12.775 5.47192 13.7303C5.81538 14.7821 7.0282 15.308 7.84391 15.4261C7.24286 15.9305 6.63106 16.6067 6.68473 17.4117C6.73839 18.2918 7.08188 19.0109 7.82246 19.4402C7.43607 21.4581 10.173 21.619 11.6434 20.8463C11.3751 21.6942 11.579 22.5958 12.5021 23.0465C13.189 23.39 14.5199 23.8837 15.1209 23.1861C16.4089 24.1521 17.8149 22.9714 18.0725 21.5869C18.6092 22.2094 19.7683 22.6065 20.423 22.5421C21.4749 22.4348 22.3121 21.8659 22.355 20.8141C23.9864 20.6209 24.2333 18.5065 23.4927 17.1863C23.9971 17.3258 24.4694 17.3366 24.9846 16.9609C25.3388 16.7033 25.5427 16.2633 25.6822 15.8661C25.9398 15.1256 25.4783 14.4064 25.7359 13.6659V13.6981ZM19.2746 6.76451C19.9186 5.49801 22.0008 6.50691 21.9471 7.73048C21.9471 7.82708 21.9579 8.05248 22.2047 7.98808C23.0956 7.76269 23.6537 8.98625 23.4283 9.70537C23.278 10.1991 22.7092 10.5425 22.2906 10.7679C21.5393 11.1758 20.4123 11.6051 19.5429 11.4978C19.5215 11.1651 19.339 10.8645 19.06 10.6713C18.7272 10.4459 18.2979 10.4781 17.9544 10.6499C18.0081 10.4674 18.0403 10.2849 18.0081 10.0703C17.9866 9.87709 17.8793 9.70537 17.7398 9.56584C18.2013 9.00772 18.5877 8.4174 18.8882 7.75195C19.017 7.48363 19.178 7.1187 19.2853 6.74304L19.2746 6.76451ZM15.9044 15.7803C13.8974 16.2418 12.9206 13.8054 13.7363 12.3672C13.629 12.775 13.6505 13.2151 13.8437 13.6551C14.4125 14.9109 16.2908 15.6085 17.0099 14.0308C17.4285 13.1077 16.7309 11.4441 15.5288 11.97C14.8419 12.2706 14.6379 13.5478 15.4751 13.7625C15.722 13.8269 15.8722 13.4512 15.6146 13.3868C15.035 13.2365 15.5717 11.5944 16.5484 12.6892C17.1495 13.3653 16.5269 14.3098 15.8078 14.5245C14.8633 14.8036 14.2301 13.8161 14.112 13.0326C13.8437 11.2617 16.0762 10.7679 17.2783 11.4656C18.094 11.9378 18.3838 13.0004 18.1584 13.8698C17.9008 14.9002 16.8704 15.5656 15.9044 15.791V15.7803ZM16.9992 17.2507C16.8167 17.401 16.5699 17.3366 16.3982 17.197C16.1835 17.0146 16.0869 16.435 16.0439 16.1452C16.3445 16.0808 16.645 15.9842 16.9241 15.8554C16.9241 15.9413 16.9241 16.0164 16.967 16.0701C17.1495 16.4243 17.4071 16.9394 17.0099 17.2614L16.9992 17.2507ZM15.1639 16.918C15.0136 17.1219 14.7453 17.2078 14.4984 17.1756C13.8222 17.079 13.951 16.3491 14.1871 15.9091C14.5306 16.1023 14.9277 16.1881 15.3356 16.1989C15.3356 16.2418 15.3356 16.2847 15.3356 16.3384C15.3356 16.4887 15.2068 16.8643 15.1531 16.918H15.1639ZM13.146 12.7428C13.146 12.7428 13.1782 12.7428 13.1997 12.7428C13.0924 13.1292 13.0494 13.5478 13.0816 13.9449C12.9099 14.02 12.4055 13.9771 12.3411 13.9557C12.0942 13.8698 11.9332 13.6444 11.8903 13.3975C11.7615 12.6677 12.6631 12.6033 13.146 12.7428ZM12.706 11.1114C12.7704 10.8753 13.0172 10.8001 13.2319 10.8216C13.5217 10.8538 13.7686 11.1329 13.951 11.3368C13.994 11.3797 14.0369 11.4012 14.0798 11.4012C13.8222 11.5837 13.6076 11.8305 13.4466 12.1096C13.4358 12.0988 13.4144 12.0774 13.4036 12.0774C13.0494 11.8949 12.5557 11.6051 12.6952 11.1221L12.706 11.1114ZM12.4591 15.0934C12.5772 14.825 12.9206 14.6855 13.1782 14.5674C13.1782 14.5674 13.1783 14.5674 13.189 14.5674C13.1997 14.6211 13.2212 14.6748 13.2319 14.7284C13.3178 14.9968 13.4465 15.2222 13.5968 15.4153C13.3178 15.6729 12.9421 15.952 12.5664 15.6944C12.3625 15.5549 12.3625 15.2973 12.4484 15.1041L12.4591 15.0934ZM14.3481 10.3279C14.3481 10.0703 14.5091 9.8449 14.7238 9.7161C15.3785 9.36191 15.722 10.1991 15.7542 10.6928C15.7542 10.7035 15.7542 10.7143 15.7649 10.7357C15.5395 10.7572 15.3248 10.7894 15.1209 10.8753C14.9814 10.9289 14.8419 11.0041 14.7131 11.0792C14.6701 11.0255 14.6165 10.9719 14.5521 10.8967C14.4447 10.8001 14.3481 10.403 14.3374 10.3279H14.3481ZM14.3481 11.2509C14.3481 11.2509 14.3267 11.2509 14.3159 11.2617C14.3159 11.2509 14.3159 11.2402 14.3159 11.2295C14.3159 11.2295 14.3267 11.2402 14.3374 11.2509H14.3481ZM16.4733 10.7572C16.4733 10.7572 16.4733 10.7465 16.4733 10.7357C16.5377 10.3386 16.645 9.78049 17.1494 9.75903C17.3963 9.75903 17.5466 9.96296 17.6003 10.1669C17.6646 10.4567 17.4715 10.7787 17.3427 11.0148C17.3427 11.0148 17.3427 11.0363 17.3427 11.047C17.0743 10.9075 16.7846 10.8001 16.4733 10.7572ZM18.2013 14.707C18.255 14.7284 18.3194 14.7499 18.373 14.7714C18.5018 14.8358 18.8346 15.0397 18.8882 15.1041C19.0492 15.308 19.0492 15.5871 18.9526 15.8125C18.6521 16.4887 17.8686 16.0379 17.5466 15.6515C17.5144 15.6085 17.4714 15.5763 17.4178 15.5441C17.7398 15.308 18.0081 15.0182 18.2013 14.6962V14.707ZM18.6628 14.02C18.5984 14.02 18.5447 14.02 18.4911 14.0522C18.5769 13.7517 18.6199 13.4297 18.5984 13.1077C18.5984 13.1077 18.6092 13.1077 18.6199 13.1077C19.017 13.0219 19.5751 12.9253 19.7791 13.3975C19.8757 13.6229 19.7361 13.8376 19.5537 13.9557C19.3068 14.1166 18.9419 14.0522 18.6736 14.02H18.6628ZM18.4589 12.3886C18.3945 12.1954 18.3086 12.013 18.2013 11.8305C18.0832 11.6373 17.9437 11.4871 17.772 11.3475C17.7613 11.208 18.1691 11.0041 18.2335 10.9719C18.4696 10.8753 18.7379 10.9504 18.9311 11.1114C19.4678 11.5729 18.8882 12.1632 18.4482 12.3886H18.4589ZM14.5306 5.05795C15.0673 4.53203 15.7649 4.77889 16.3552 5.05795C16.4518 5.20822 16.645 5.20822 16.7094 5.10089C17.2353 4.72523 17.8042 4.49983 18.5448 5.20822C19.1673 5.79853 18.856 6.62498 18.6306 7.31189C18.373 8.07394 17.9008 8.76086 17.3856 9.37264C16.6665 9.14725 16.2908 9.82343 16.1406 10.4137C16.0869 10.0059 15.9152 9.63023 15.5502 9.39411C15.2926 9.23311 15.0136 9.21165 14.7453 9.28678C14.3911 8.56766 14.1335 7.68755 13.951 6.9255C13.7686 6.15272 13.9939 5.57314 14.5413 5.04722L14.5306 5.05795ZM10.5808 7.19383C10.8384 7.39776 10.9565 7.1187 10.9028 6.94697C10.3662 5.21895 13.1997 4.80036 13.468 6.29226C13.468 6.31372 13.4895 6.33519 13.5002 6.35665C13.4573 7.40849 13.9617 8.63206 14.3803 9.46924C14.0047 9.72683 13.9081 10.2206 13.994 10.6391C14.0047 10.7035 14.0369 10.7894 14.0584 10.8538C13.8437 10.6499 13.6076 10.4781 13.307 10.4245C12.9743 10.3601 12.6416 10.5103 12.4377 10.7787C12.2445 11.0363 12.2337 11.2939 12.3196 11.53C11.4931 10.7357 10.7311 9.67317 9.63631 9.39411C9.61485 9.38337 9.59338 9.37264 9.57192 9.36191C8.885 9.16871 8.60597 8.4496 8.65964 7.79489C8.7455 6.70011 9.84025 6.88257 10.5808 7.20456V7.19383ZM7.47899 14.4708C7.19993 14.2669 6.996 13.9771 6.8994 13.6551C6.7384 13.1399 7.07113 12.453 7.67218 12.5604C8.02637 12.6248 8.00491 12.3564 7.87611 12.2062C7.1248 11.3368 7.52193 10.0703 8.62744 9.75903C9.29289 9.57657 10.0442 10.0274 10.5701 10.3815C11.3536 10.9075 11.8259 11.7339 12.5664 12.292C12.3089 12.3028 12.0727 12.3779 11.8581 12.5496C11.5146 12.8287 11.4288 13.2687 11.5468 13.6766C11.6434 14.0093 11.9225 14.2347 12.2337 14.3528C11.1282 14.4708 9.79732 14.5245 8.80988 15.0826C8.80988 15.0826 8.80987 15.0719 8.79914 15.0612C8.36982 14.8143 7.88685 14.7928 7.47899 14.4816V14.4708ZM10.5272 20.2882C9.80806 20.213 8.92795 19.4939 9.45387 18.7211C9.57193 18.5494 9.52901 18.324 9.22849 18.3777C8.45571 18.5065 8.02637 17.5727 8.0049 16.9287C7.98344 16.1989 8.52011 15.63 9.13189 15.3187C9.99054 14.8787 11.2141 14.8358 12.223 14.7392C12.1801 14.7928 12.1371 14.8465 12.1049 14.9109C11.9439 15.2007 11.9761 15.5763 12.1693 15.8447C12.6094 16.4672 13.3178 16.1559 13.8007 15.7695C13.5968 16.1345 13.5109 16.5316 13.6612 16.9394C13.7256 17.1004 13.833 17.2292 13.951 17.3258C13.4144 18.0449 12.5664 18.8929 12.2552 19.8374C11.6971 20.095 11.1712 20.3526 10.5272 20.2882ZM16.7416 21.941C16.1406 22.2738 15.6039 22.263 15.0995 21.8444C15.0351 21.7371 14.8526 21.6834 14.756 21.8122C14.1657 22.4884 13.0816 21.8766 12.7274 21.2649C12.4591 20.7926 12.5986 20.1916 12.7596 19.7193C13.0494 18.8821 13.7793 18.2274 14.3052 17.5298C14.4125 17.562 14.5199 17.5834 14.6379 17.5942C15.0887 17.6156 15.4644 17.2722 15.6468 16.8965C15.679 16.8321 15.7005 16.7677 15.722 16.6926C15.7971 17.0038 15.9259 17.3044 16.1191 17.5083C16.3337 17.723 16.645 17.7874 16.9348 17.723C17.0529 18.6353 17.1387 19.6442 17.5251 20.4169C17.5251 20.4384 17.5359 21.501 16.7309 21.941H16.7416ZM21.2817 19.6764C21.0885 19.6334 20.9168 19.6764 21.0456 20.0306C21.1636 20.3526 20.1654 21.1146 20.101 21.1468C19.3819 21.5332 18.5877 21.1468 18.1047 20.5994C18.0403 20.5243 17.8686 20.2345 17.8364 20.2238C17.3963 19.4402 17.4392 18.4099 17.3212 17.5405C17.7183 17.2078 17.611 16.5853 17.4178 16.113C17.7076 16.4028 18.0725 16.6067 18.5126 16.5638C18.9526 16.5209 19.2639 16.2096 19.4034 15.8017C19.4785 15.5871 19.4571 15.3617 19.3712 15.1578C20.1976 15.6729 21.1636 16.3706 22.1296 16.6818C22.6126 16.9287 22.956 17.5942 23.0634 18.0664C23.2566 18.9036 22.0652 19.8588 21.271 19.6764H21.2817ZM24.2548 14.1703C24.5123 14.3313 24.3943 15.6085 24.3835 15.6515C24.0186 16.714 22.7843 16.3813 22.0116 16.1345C20.8846 15.7695 20.0152 15.0182 18.9955 14.4708C19.2746 14.4708 19.5537 14.4386 19.7683 14.3206C20.0581 14.1596 20.2298 13.8269 20.2084 13.4941C20.1654 12.7321 19.4034 12.614 18.7916 12.6892C19.1029 12.5174 19.3605 12.2706 19.4785 11.9271C20.4767 12.0666 21.8613 11.6266 22.8272 10.9611C23.5571 11.0041 24.1474 11.3046 24.5338 11.9486C24.8987 12.5496 24.8558 13.4405 24.1796 13.7517C23.8791 13.8376 23.7932 14.1381 24.244 14.1703H24.2548Z" fill="#DFBD64"/>
<path d="M19.8437 12.7965C19.8437 12.7965 19.8652 12.7965 19.8867 12.7965C19.8759 12.7965 19.8652 12.7965 19.8437 12.7965C19.833 12.7965 19.8222 12.7965 19.8008 12.7965C19.9403 12.8717 20.0584 12.9897 20.1335 13.1507C20.8527 13.0219 21.6147 12.8609 22.2479 12.5282C21.4966 12.7751 20.6272 12.7858 19.8437 12.7965Z" fill="#DFBD64"/>
<path d="M12.6639 16.1562C12.5137 16.124 12.3741 16.0488 12.2561 15.92C11.5906 16.081 10.9037 16.1884 10.2168 16.2206C11.0325 16.2957 11.859 16.2635 12.6747 16.1562H12.6639Z" fill="#DFBD64"/>
<path d="M13.2858 15.6412C13.1462 15.6842 12.996 15.7271 12.8457 15.77C12.996 15.7808 13.1462 15.7271 13.2858 15.6412Z" fill="#DFBD64"/>
<path d="M12.8367 10.4462C12.9762 10.3926 13.1372 10.3711 13.2982 10.4033C12.665 10.1564 12.0317 9.87738 11.4629 9.52319C11.8922 9.86665 12.3645 10.1779 12.8367 10.457V10.4462Z" fill="#DFBD64"/>
<path d="M18.0097 10.0704C18.0419 10.2744 18.0097 10.4676 17.9453 10.65C18.2458 10.4998 18.6215 10.4568 18.9327 10.5964C19.6411 10.371 20.371 10.1134 20.9291 9.68405C20.3173 10.0382 19.5231 10.1885 18.7825 10.3173C19.7914 9.63039 20.8217 8.92201 21.6804 8.0741C20.65 8.92201 19.4157 9.57673 18.2351 10.2422C18.8254 9.61966 19.4157 8.99715 19.8987 8.2995C19.3192 8.92201 18.6322 9.44793 17.9668 9.97385C17.9668 10.0061 17.9882 10.0382 17.999 10.0704H18.0097Z" fill="#DFBD64"/>
<path d="M16.0973 17.455C15.9149 17.2511 15.7968 16.9613 15.7217 16.6715C15.7002 16.7466 15.6787 16.811 15.6465 16.8754C15.5821 17.0257 15.4748 17.1652 15.3567 17.2726C15.2494 18.0883 15.024 18.8933 14.5625 19.5587C15.0455 19.0113 15.3782 18.3351 15.5929 17.6267C15.6251 18.6571 15.5714 19.7304 15.2065 20.632C15.668 19.7304 15.8182 18.6142 15.8826 17.5409C16.0007 18.0131 16.1295 18.4747 16.2476 18.9469C16.1939 18.4425 16.151 17.938 16.0973 17.4443V17.455Z" fill="#DFBD64"/>
<path d="M18.7801 16.8322C19.3167 17.0362 19.8534 17.2186 20.4008 17.3474C19.7997 17.1113 19.2309 16.8108 18.6727 16.4995C18.6191 16.521 18.5547 16.5317 18.4903 16.5317C18.0502 16.5747 17.696 16.3707 17.4062 16.0809C17.4599 16.199 17.5028 16.3385 17.535 16.4781C18.1254 17.2938 18.7157 18.1739 18.9518 19.0969C18.823 18.2168 18.3829 17.326 17.9214 16.5102C19.0162 17.326 20.2612 18.2275 20.8945 19.3223C20.4652 18.41 19.628 17.5836 18.7908 16.8322H18.7801Z" fill="#DFBD64"/>
<path d="M19.9746 14.1064C20.6615 14.2352 21.3699 14.4069 21.9602 14.7718C21.4558 14.3211 20.7903 14.0098 20.1571 13.7629C20.1142 13.8917 20.0605 14.0098 19.9746 14.1064Z" fill="#DFBD64"/>
<path d="M20.167 13.2798C20.1777 13.3442 20.1992 13.3978 20.1992 13.4622C20.1992 13.5374 20.1992 13.6125 20.1777 13.6876C21.2403 13.9023 22.6571 14.2565 23.6123 13.9023C22.5819 14.1599 21.1652 13.5803 20.1562 13.2798H20.167Z" fill="#DFBD64"/>
<path d="M13.5876 16.3387C13.6091 16.1348 13.6842 15.9416 13.7915 15.7592C13.491 15.9953 13.1046 16.2099 12.7504 16.1885C11.8166 16.9613 10.8399 17.734 9.77734 18.2278C11.0331 17.7662 12.2137 16.9398 13.33 16.1455C12.8148 16.7895 12.3211 17.4442 11.881 18.1312C12.4177 17.4979 13.008 16.9076 13.5983 16.3387H13.5876Z" fill="#DFBD64"/>
<path d="M13.4257 10.4354C13.6618 10.5105 13.8657 10.6608 14.0482 10.8325C14.016 10.7574 13.9945 10.6823 13.9838 10.6179C13.9516 10.4783 13.9516 10.3281 13.9623 10.1886C13.4686 9.59824 13.0071 8.96499 12.6851 8.28881C12.8998 8.95426 13.2432 9.57677 13.6189 10.1886C12.5992 9.44797 11.4723 8.5786 11 7.55896C11.3864 8.643 12.4811 9.63044 13.4364 10.4569L13.4257 10.4354Z" fill="#DFBD64"/>
<path d="M8.25195 12.3354C9.18573 12.9043 10.4308 13.0653 11.5041 13.2048C11.5255 12.9901 11.6114 12.7862 11.7616 12.6145C11.0962 12.1744 10.4308 11.7773 9.79751 11.2836C10.2912 11.8095 10.8279 12.0993 11.3323 12.8613C10.302 12.8399 9.16426 12.7647 8.25195 12.3354Z" fill="#DFBD64"/>
<path d="M11.537 13.645C11.5155 13.5698 11.5047 13.5054 11.494 13.4303C10.689 13.6128 9.86259 13.7952 9.04688 13.806C9.88405 13.9347 10.7534 13.8704 11.6013 13.806C11.5691 13.7523 11.5477 13.6986 11.537 13.645Z" fill="#DFBD64"/>
<path d="M16.1419 10.4033C16.217 10.092 16.3566 9.77004 16.5712 9.55538C16.743 8.68601 16.9361 7.77369 17.3547 7.05458C16.861 7.72003 16.5605 8.61088 16.2922 9.44805C16.2492 8.12789 16.217 6.76479 16.4531 5.49829C16.099 6.78626 16.0453 8.21375 15.9702 9.58758C15.6589 8.86847 15.3584 8.05275 15.4228 7.34437C15.2725 7.97762 15.4228 8.73967 15.6053 9.43732C15.938 9.67345 16.0882 10.0276 16.1419 10.414V10.4033Z" fill="#DFBD64"/>
</g>
<defs>
<filter id="filter0_d_3680_8441" x="0" y="0" width="31" height="31" filterUnits="userSpaceOnUse" color-interpolation-filters="sRGB">
<feFlood flood-opacity="0" result="BackgroundImageFix"/>
<feColorMatrix in="SourceAlpha" type="matrix" values="0 0 0 0 0 0 0 0 0 0 0 0 0 0 0 0 0 0 127 0" result="hardAlpha"/>
<feOffset dy="2"/>
<feGaussianBlur stdDeviation="2"/>
<feComposite in2="hardAlpha" operator="out"/>
<feColorMatrix type="matrix" values="0 0 0 0 0 0 0 0 0 0 0 0 0 0 0 0 0 0 0.25 0"/>
<feBlend mode="normal" in2="BackgroundImageFix" result="effect1_dropShadow_3680_8441"/>
<feBlend mode="normal" in="SourceGraphic" in2="effect1_dropShadow_3680_8441" result="shape"/>
</filter>
</defs>
</svg>
